<svg height="327" width="894" xmlns="http://www.w3.org/2000/svg"><g fill="#fff" fill-rule="evenodd"><path d="M289.12 185.522c-12.3 69.7-78.8 116.3-148.5 104-69.7-12.3-116.3-78.8-104-148.5 12.3-69.7 78.7-116.2 148.5-104 69.7 12.3 116.3 78.8 104 148.5m-99.5-171.2c-82.3-14.5-160.8 40.4-175.3 122.7-14.5 82.3 40.5 160.8 122.8 175.3s160.8-40.4 175.3-122.7c14.5-82.3-40.5-160.8-122.8-175.3"/><path d="M182.419 114.522l7.3-4.6c2.3-1.5 1.3-5.1-1.5-5.1h-29.1c-2.2 0-4-1.9-4.2-4l-2.2-29.4c-.2-2.7-3.8-3.5-5.2-1.2l-18.4 31.1c-1.1 1.9-3.7 3.5-5.9 3.5h-32c-2.5 0-3.7 3-2 4.7l19.5 19.5c1.5 1.5 1.9 4.3.8 6.2l-16.2 29.4c-1.4 2.5 1.5 5.2 3.9 3.7l23.7-15c2.1-1.3 4.7.5 4.2 2.9l-15.8 74.5c-.4 1.7.9 3.3 2.7 3.3h34.1c4.2 0 8.4-3.4 9.2-7.5l7.2-33.7h44.4c4.2 0 9.6-2.8 12-6.3l11.7-17.2c1.3-1.8-.1-4.3-2.3-4.3h-56.4c-1.8 0-3.1-1.6-2.7-3.3l2.5-11.9c.3-1.3 1.4-2.2 2.7-2.2h63.9c4.2 0 9.6-2.8 11.9-6.3l11.7-17.2c1.3-1.8-.1-4.3-2.3-4.3h-76c-2.5-.2-3.5-3.8-1.2-5.3m211.2-30.3h90.6l-4.6 21.8h-55.3l-2.9 13.7h50.9l-4.6 21.8h-50.9l-6.8 32.2h-35.3zm139.901 70c14.399 0 25.1-7.1 28.899-25.3 3.9-18.2-3.8-25.3-18.2-25.3-14.4 0-25.1 7.1-28.9 25.3-3.8 18.1 3.8 25.3 18.2 25.3m15.5-73.2c21.4 0 60.8 1.5 51 47.8-9.8 46.3-49.9 47.8-71.3 47.8s-60.8-1.5-51-47.9c9.9-46.2 49.9-47.7 71.3-47.7m113.3 73.2c14.4 0 25.1-7.1 28.9-25.3 3.9-18.2-3.8-25.3-18.2-25.3s-25.1 7.1-28.9 25.3c-3.9 18.1 3.8 25.3 18.2 25.3m15.5-73.2c21.4 0 60.8 1.5 51 47.8-9.8 46.3-49.9 47.8-71.3 47.8s-60.8-1.5-51-47.9c9.9-46.2 49.9-47.7 71.3-47.7m90.5 25.7h-32.7l4.8-22.5h100.7l-4.8 22.5h-32.7l-14.2 66.9h-35.3zm-326.6 154h-9.9l12-56.199-40.7 56.199h-8.3l-16.8-56.8-12.1 56.8h-9.9l15.4-72.399h12.6l17.7 59.099 42.8-59.099h12.5zm69.4 0h-58.9l15.4-72.399h58.1l-2 9.2h-48.3l-4.5 21.099h46.5l-2 9.201h-46.5l-5 23.599h49.1zm25.401-39.9h29c9.3 0 14.899-4.2 16.699-12.6.7-3.4.4-5.9-1-7.6-1.6-2-4.8-3-9.5-3h-30.2zm47.899 39.9h-11.3l-.4-.6c-.9-1.4-1.1-4.6 1-15.2 1.1-5.8.8-9.5-1-11.7-1.8-2.2-5.3-3.2-11.2-3.2h-27l-6.5 30.7h-9.9l15.4-72.4h39.1c8.4 0 14.4 2.1 17.6 6.1 2.8 3.5 3.6 8.3 2.3 14.3-1.6 7.6-7 13.8-14.3 16.7 1.8.8 3.2 1.8 4.1 3.2 2.6 3.7 2.4 9.3 1.2 16.5-1.6 9.3-1.3 12.8-.9 13.4zm39.9 1.7c-11.5 0-20.4-3.6-25.9-10.3-5.5-6.8-7.2-16.5-4.7-27.9 3.9-18.1 20-37.7 46.2-37.7 10.6 0 19.4 3.2 24.6 8.9 4.2 4.6 5.9 10.6 5.2 17.8l-.1 1.2h-9.8l.1-1.4c.2-4.7-1-8.5-3.8-11.4-3.6-3.8-9.9-5.9-17.7-5.9-18 0-30.5 10.6-34.4 29-1.9 8.9-.8 16.5 3.2 21.4 3.8 4.6 10 7 18.4 7 14.9 0 25.2-7 30.7-20.9l.3-.8h9.9l-.5 1.7c-5.3 17.3-22.5 29.3-41.7 29.3m65.9-32.1h26.8l-6.9-30.2zm44.8 30.4h-11.1l-4.8-21.2h-35l-14 21.2h-10.9l48.2-72.4h10.1zm32.2 0h-9.899l13.399-63.1H743.32l2-9.2h64.599l-2 9.2H780.52zm80.601-64.9c-13.4 0-30.7 7.6-35.2 29-1.902 8.8-.8 15.8 3.3 20.8 4 4.9 10.798 7.7 19.2 7.7 13.4 0 30.7-7.6 35.2-29 1.898-8.8.8-15.8-3.3-20.8-4-5-10.802-7.7-19.2-7.7m-14.2 66.6c-11.5 0-20.902-3.9-26.6-10.9-5.5-6.8-7.2-16.2-4.802-27.3 5.5-26 27.601-37.7 47-37.7 11.5 0 20.901 3.9 26.601 10.9 5.5 6.8 7.2 16.2 4.8 27.3-5.5 26.1-27.6 37.7-47 37.7"/></g></svg>