<svg viewBox="0 0 24 24" xmlns="http://www.w3.org/2000/svg"><path d="m23.495 6.205c-.29-1.015-1.073-1.798-2.067-2.083l-.021-.005c-1.87-.501-9.396-.501-9.396-.501s-7.507-.01-9.396.501c-1.015.29-1.798 1.073-2.083 2.067l-.005.021c-.332 1.71-.522 3.677-.522 5.689v.122-.006.095c0 2.011.19 3.978.553 5.884l-.031-.195c.29 1.015 1.073 1.798 2.067 2.083l.021.005c1.868.502 9.396.502 9.396.502s7.506 0 9.396-.502c1.015-.29 1.798-1.073 2.083-2.067l.005-.021c.319-1.675.501-3.602.501-5.571 0-.074 0-.149-.001-.223v.011c.001-.069.001-.151.001-.233 0-1.97-.182-3.897-.531-5.766zm-13.886 9.396v-7.193l6.264 3.602z" fill="#fff"/></svg>